<?xml version="1.0" encoding="UTF-8" standalone="no"?>
<!-- Svg Vector Icons : http://www.onlinewebfonts.com/icon -->

<svg
   xmlns:dc="http://purl.org/dc/elements/1.1/"
   xmlns:cc="http://creativecommons.org/ns#"
   xmlns:rdf="http://www.w3.org/1999/02/22-rdf-syntax-ns#"
   xmlns:svg="http://www.w3.org/2000/svg"
   xmlns="http://www.w3.org/2000/svg"
   xmlns:sodipodi="http://sodipodi.sourceforge.net/DTD/sodipodi-0.dtd"
   xmlns:inkscape="http://www.inkscape.org/namespaces/inkscape"
   version="1.1"
   x="0px"
   y="0px"
   viewBox="0 0 1000 1000"
   enable-background="new 0 0 1000 1000"
   xml:space="preserve"
   id="svg4497"
   sodipodi:docname="icon_kiosk.svg"
   inkscape:export-filename="C:\Users\mholtgre\Downloads\icon_kiosk.png"
   inkscape:export-xdpi="36.285713"
   inkscape:export-ydpi="36.285713"
   inkscape:version="0.92.1 r15371"><defs
     id="defs4501" /><sodipodi:namedview
     pagecolor="#ffffff"
     bordercolor="#666666"
     borderopacity="1"
     objecttolerance="10"
     gridtolerance="10"
     guidetolerance="10"
     inkscape:pageopacity="0"
     inkscape:pageshadow="2"
     inkscape:window-width="1920"
     inkscape:window-height="986"
     id="namedview4499"
     showgrid="false"
     inkscape:zoom="0.763"
     inkscape:cx="500"
     inkscape:cy="500"
     inkscape:window-x="-11"
     inkscape:window-y="-11"
     inkscape:window-maximized="1"
     inkscape:current-layer="svg4497" /><metadata
     id="metadata4485"> Svg Vector Icons : http://www.onlinewebfonts.com/icon <rdf:RDF><cc:Work
     rdf:about=""><dc:format>image/svg+xml</dc:format><dc:type
       rdf:resource="http://purl.org/dc/dcmitype/StillImage" /></cc:Work></rdf:RDF></metadata><g
     id="g4495"
     style="fill:#ffffff"><g
       transform="translate(0.000000,511.000000) scale(0.100000,-0.100000)"
       id="g4493"
       style="fill:#ffffff"><path
         d="M1259.7,4707.8c-30.6-18.4-300.1-338.9-596.2-712.5C104.1,3295,73.5,3246,118.4,3125.5c14.3-36.8,14.3-73.5,2-108.2c-28.6-71.5-26.5-1149.4,2-1347.5c28.6-212.3,114.3-461.4,224.6-653.3C500.2,749,794.2,465.2,1069.8,322.3c83.7-44.9,108.2-67.4,98-89.8c-10.2-16.3-18.4-1053.5-22.4-2303c-4.1-2496.9-12.3-2356.1,118.4-2423.4c53.1-26.5,490-30.6,3736.2-30.6s3683.1,4.1,3736.2,30.6c130.7,67.4,122.5-73.5,118.4,2423.4c-4.1,1249.5-12.2,2286.7-20.4,2303c-12.2,22.5,24.5,53.1,153.1,122.5c224.6,122.5,537,432.8,665.6,659.4c110.2,196,196,445.1,224.6,655.4c28.6,198,30.6,1276,2,1347.5c-12.2,34.7-12.2,71.5,2,108.2c44.9,120.5,14.3,169.5-545.1,869.7c-296,373.6-565.5,694.2-596.2,712.5c-51,34.7-269.5,36.7-3740.3,36.7C1529.2,4744.6,1310.7,4742.5,1259.7,4707.8z M8899.5,3723.7c224.6-279.7,408.3-514.5,408.3-520.6s-1937.5-10.2-4307.9-10.2c-2368.3,0-4307.9,4.1-4307.9,10.2s183.8,240.9,408.3,520.6l408.3,510.4H5000h3491.2L8899.5,3723.7z M3519.8,902.2c83.7-128.6,308.3-355.2,453.3-457.3c157.2-114.3,389.9-222.5,594.1-277.7c224.6-61.3,643.1-59.2,871.8,2c202.1,55.1,426.7,159.3,590,275.6c142.9,102.1,367.5,328.7,451.2,457.3c30.6,47,61.3,85.8,69.4,85.8c6.1,0,38.8-42.9,73.5-98c91.9-145,349.1-392,522.6-500.2c304.2-187.8,714.6-296,1035.1-271.5l167.4,14.3v-2072.3v-2074.3h-255.2h-255.2l-4.1,1721.1c-6.1,1602.7-8.1,1723.2-42.9,1772.2c-75.5,110.3-63.3,110.3-1210.7,116.4c-1178,6.1-1186.2,6.1-1267.9-116.4l-47-69.4v-1710.9v-1712.9H3458.5H1651.7v2074.3V134.5l149-14.3C2378.5,67.1,3068.6,408.1,3383,900.1c30.6,49,61.3,87.8,67.4,87.8C3458.5,987.9,3489.2,949.1,3519.8,902.2z M7327.5-2462.5v-1551.7h-775.8h-775.8v1551.7v1551.7h775.8h775.8V-2462.5z"
         id="path4487"
         style="fill:#ffffff" /><path
         d="M2313.2-439.2c-155.2-69.4-151.1-40.8-151.1-1245.4c0-1155.6,0-1155.6,112.3-1243.4c57.2-44.9,59.2-44.9,1167.8-44.9c1218.9,0,1196.4-2,1261.7,122.5c26.5,51.1,30.6,216.4,30.6,1159.7v1100.4l-47,69.4c-26.5,38.8-77.6,79.6-116.4,93.9c-51,18.4-363.4,24.5-1122.9,24.5C2468.3-400.4,2390.8-404.5,2313.2-439.2z M4224.2-1686.7v-775.8h-775.8h-775.8v775.8v775.8h775.8h775.8V-1686.7z"
         id="path4489"
         style="fill:#ffffff" /><path
         d="M3509.6-1166c-51-26.5-93.9-77.6-373.6-445.1c-126.6-165.4-136.8-185.8-136.8-281.7c0-91.9,8.2-112.3,69.4-173.6c55.1-55.1,85.8-69.4,153.1-69.4c44.9,0,106.2,10.2,134.8,24.5c44.9,20.4,353.2,394,485.9,588c40.8,59.2,44.9,193.9,6.1,261.3C3787.3-1149.7,3621.9-1102.8,3509.6-1166z"
         id="path4491"
         style="fill:#ffffff" /></g></g></svg>