<?xml version="1.0" encoding="UTF-8" standalone="no"?>
<svg
   xmlns:dc="http://purl.org/dc/elements/1.1/"
   xmlns:cc="http://creativecommons.org/ns#"
   xmlns:rdf="http://www.w3.org/1999/02/22-rdf-syntax-ns#"
   xmlns:svg="http://www.w3.org/2000/svg"
   xmlns="http://www.w3.org/2000/svg"
   xmlns:sodipodi="http://sodipodi.sourceforge.net/DTD/sodipodi-0.dtd"
   xmlns:inkscape="http://www.inkscape.org/namespaces/inkscape"
   height="100px"
   width="100px"
   version="1.1"
   x="0px"
   y="0px"
   viewBox="0 0 90 90"
   xml:space="preserve"
   id="svg2"
   inkscape:version="0.91 r13725"
   sodipodi:docname="kiosc_icon.svg"
   inkscape:export-filename="/vol/local/projects/kiosc/kiosc/static/images/favicon/favicon-32x32.png"
   inkscape:export-xdpi="34.290001"
   inkscape:export-ydpi="34.290001"
   fill="#000000"><metadata
     id="metadata18"><rdf:RDF><cc:Work
         rdf:about=""><dc:format>image/svg+xml</dc:format><dc:type
           rdf:resource="http://purl.org/dc/dcmitype/StillImage" /><dc:title></dc:title></cc:Work></rdf:RDF></metadata><defs
     id="defs16" /><sodipodi:namedview
     pagecolor="#ffffff"
     bordercolor="#666666"
     borderopacity="1"
     objecttolerance="10"
     gridtolerance="10"
     guidetolerance="10"
     inkscape:pageopacity="0"
     inkscape:pageshadow="2"
     inkscape:window-width="1920"
     inkscape:window-height="1149"
     id="namedview14"
     showgrid="true"
     fit-margin-top="1"
     fit-margin-left="1"
     fit-margin-right="1"
     fit-margin-bottom="1"
     inkscape:zoom="4.72"
     inkscape:cx="22.942555"
     inkscape:cy="38.996161"
     inkscape:window-x="0"
     inkscape:window-y="25"
     inkscape:window-maximized="1"
     inkscape:current-layer="svg2" /><rect
     x="39.0425034"
     y="51.3320961"
     transform="matrix(0.7071394 -0.7070741 0.7070741 0.7071394 -24.3330193 45.5152168)"
     width="7.4726133"
     height="1.5999674"
     id="rect4" /><rect
     x="37.2991638"
     y="47.2337074"
     transform="matrix(0.7074119 -0.7068015 0.7068015 0.7074119 -21.9437447 43.0581436)"
     width="7.4729586"
     height="1.5999674"
     id="rect6" /><path
     d="M16.7109375,35.0442505v38.5475464h-1.5507813c-0.4414063,0-0.7998047,0.3579102-0.7998047,0.7998047v3.4897461  c0,0.4418945,0.3583984,0.7998047,0.7998047,0.7998047h20.6034546c1.4119263,2.1508179,3.8544922,3.5791016,6.6309204,3.5791016  s5.2186279-1.4282837,6.630249-3.5791016h17.4996338h8.4960938c0.4414063,0,0.7998047-0.3579102,0.7998047-0.7998047v-3.4897461  c0-0.4418945-0.3583984-0.7998047-0.7998047-0.7998047h-4.2011719v-4.121582c0-0.4418945-0.3583984-0.7998047-0.7998047-0.7998047  h-2.6953125V35.5845947c2.0028076-1.0422363,3.3740234-3.121582,3.3740234-5.5152588v-3.4301758  c0-0.1162109-0.0271606-0.2249146-0.0717163-0.3245239c-0.0018921-0.0042725-0.0005493-0.0091553-0.0025024-0.0133667  c-0.4580078-0.9824219-0.9238281-1.9570313-1.3886719-2.9321289c-0.4541016-0.9492188-0.9072266-1.8979492-1.3525391-2.8544922  c-0.453125-0.9716797-0.9140625-1.9355469-1.3740234-2.8999023c-0.434082-0.9074097-0.8664551-1.815918-1.2929688-2.7295532  v-1.1908569c0-2.8422852-2.3320313-5.1547852-5.1982422-5.1547852c-1.8580322,0-3.479126,0.9796753-4.3984375,2.437561  c-0.9193115-1.4578857-2.5404053-2.437561-4.3984375-2.437561c-1.8562622,0-3.4762573,0.9776611-4.3960571,2.4332275  c-0.9144287-1.4555664-2.5250854-2.4332275-4.3705444-2.4332275c-1.8580322,0-3.479126,0.9796753-4.3984375,2.437561  c-0.9193115-1.4578857-2.5404053-2.437561-4.3984375-2.437561c-1.8579102,0-3.4785156,0.9794312-4.397583,2.4372559  c-0.9193115-1.4578247-2.5404053-2.4372559-4.3983154-2.4372559c-2.8496094,0-5.1679688,2.3125-5.1679688,5.1547852v1.1895142  c-0.4538574,0.9423828-0.9012451,1.8790283-1.3486328,2.8148804c-0.4453125,0.9331055-0.890625,1.8666992-1.3476563,2.8154297  c-0.9033203,1.9360352-1.8046875,3.8417969-2.7382813,5.777832c-0.0025635,0.0053101-0.0009155,0.0114136-0.0033569,0.0167236  c-0.0463867,0.1013184-0.0757446,0.2116699-0.0757446,0.3304443v3.4301758  C14.1796875,32.1032104,15.1776123,33.9069214,16.7109375,35.0442505z M34.9550781,77.081543H15.9599609v-1.8901367h1.5507813  h13.3457031h3.6660156c0.0003662,0.0037842,0.0014648,0.0074463,0.0018311,0.0112305  c0.0302124,0.3014526,0.0807495,0.5966797,0.1446533,0.887146c0.0172729,0.0784912,0.0407715,0.1546631,0.0604858,0.2324219  c0.0552979,0.21875,0.1182251,0.434021,0.1917114,0.6450806C34.9342651,77.0046997,34.9413452,77.0443115,34.9550781,77.081543z   M50.2578125,73.5917969c-0.2371826-2.206543-1.4129028-4.1350098-3.119751-5.4043579  c-0.0007324-0.0005493-0.0015869-0.0012207-0.0023804-0.00177c-0.1833496-0.1362305-0.3720093-0.2647705-0.5671997-0.3851318  c-0.0162964-0.0100708-0.032959-0.0196533-0.0493164-0.0296021c-0.1818848-0.1104126-0.3673706-0.2145996-0.5585938-0.3104858  c-0.0361938-0.0182495-0.0734253-0.034668-0.1099243-0.0523682c-0.1755981-0.0847168-0.3530884-0.1654053-0.5356445-0.2373657  c-0.0601196-0.0238647-0.1220093-0.0437622-0.1828613-0.0662231c-0.1644897-0.0601807-0.3292236-0.1192017-0.4986572-0.1687012  c-0.09021-0.0265503-0.1828613-0.0463867-0.274353-0.0697632c-0.1463623-0.0371094-0.291626-0.0762329-0.4411011-0.1051636  c-0.1332397-0.026001-0.2697144-0.0419922-0.4052124-0.0612183c-0.1140747-0.0160522-0.2263794-0.0373535-0.3419189-0.0485229  c-0.2556152-0.0249634-0.5144043-0.0388184-0.7763672-0.0388184c-0.2620239,0-0.520874,0.013916-0.7765503,0.0388794  c-0.1143799,0.0110474-0.2255859,0.0321045-0.338501,0.0479736c-0.1369019,0.0194092-0.2747192,0.0355225-0.4093018,0.0618286  c-0.1473389,0.0285645-0.2906494,0.0671997-0.4349976,0.1036987c-0.093811,0.0238647-0.1887817,0.0443115-0.281189,0.0715332  c-0.1668091,0.0487671-0.3289795,0.1069336-0.4910889,0.1660767c-0.0637207,0.0233765-0.128418,0.0443115-0.1914063,0.0692749  c-0.1796265,0.0708008-0.354187,0.1503296-0.5270386,0.2335815c-0.0397339,0.0192261-0.0800781,0.0370483-0.1194458,0.0568848  c-0.1881104,0.0944214-0.3706665,0.1970215-0.5498047,0.305542c-0.0195313,0.0119019-0.0393677,0.0232544-0.0587769,0.0352783  c-0.1921387,0.1186523-0.3779297,0.2452393-0.5585938,0.3792725c-0.0038452,0.0028687-0.0077515,0.0056763-0.0115967,0.0085449  c-1.7047119,1.2694092-2.8789673,3.1964722-3.1159668,5.401123h-2.2783203l4.7568359-8.1240234h10.7705078l4.7578125,8.1240234  H50.2578125z M42.3945313,80.6606445c-2.3452759,0-4.3917847-1.274231-5.4794922-3.1566772  c-0.0053101-0.0098267-0.0030518-0.0216675-0.0087891-0.031311c-0.2545166-0.4282227-0.4474487-0.8920288-0.585144-1.378418  c-0.0172119-0.0610352-0.0327148-0.1227417-0.0480957-0.1845703c-0.0474854-0.1906128-0.0855713-0.3848267-0.1146851-0.5819702  c-0.0079346-0.0534668-0.0182495-0.1062012-0.0247803-0.1600952c-0.0303345-0.2503052-0.0481567-0.5043945-0.0487061-0.7626953  c0.0001831-0.0549927,0.0068359-0.1084595,0.0084229-0.1630859c0.1116333-3.338623,2.9014893-6.0299072,6.3012695-6.0299072  c3.3988037,0,6.1886597,2.6912842,6.300293,6.0299072c0.00177,0.0601807,0.0092773,0.1189575,0.0092773,0.1795654  c0,0.2439575-0.0186157,0.4862671-0.0465698,0.7269897c-0.0101318,0.0858154-0.0258179,0.1699219-0.0394287,0.2546387  c-0.0231323,0.1464844-0.0512085,0.2918701-0.0845947,0.4359741c-0.0267944,0.1132202-0.0548706,0.2259521-0.0877686,0.336731  c-0.0268555,0.0921631-0.0593262,0.1821289-0.090332,0.2728882C47.5015869,78.8955078,45.1548462,80.6606445,42.3945313,80.6606445z   M49.902832,76.8707886c0.0493164-0.1481934,0.09021-0.2996216,0.1306763-0.4515381  c0.0299683-0.1147461,0.0646362-0.227478,0.0894165-0.343811c0.0628052-0.2886353,0.1115723-0.5820923,0.1412964-0.8814087  c0.000061-0.0008545,0.0003662-0.00177,0.0004272-0.0026245h3.6679688h11.7919922v1.8901367H49.8417969  C49.866394,77.0128174,49.880127,76.9402466,49.902832,76.8707886z M69.2197266,70.2700195v4.121582  c0,0.4418945,0.3583984,0.7998047,0.7998047,0.7998047h4.2011719v1.8901367h-6.8964844v-2.6899414v-4.121582H69.2197266z   M65.7246094,39.6191406h-6.7207031V41.21875h6.7207031v2.1762695h-3.8779297v1.5996094h3.8779297v2.1757813h-1.5410156v1.5996094  h1.5410156v20.7001953v4.121582H54.3914185l-5.4627075-9.328125c-0.1435547-0.2451172-0.40625-0.3955078-0.6904297-0.3955078  H36.5498047c-0.2841797,0-0.546875,0.1503906-0.6904297,0.3955078l-5.461792,9.328125H18.3105469v-5.4072266H25.03125v-1.5996094  h-6.7207031v-2.1762695h3.8779297V62.809082h-3.8779297v-2.1757813h1.5410156v-1.5996094h-1.5410156V35.921875  c0.0540161,0.0196533,0.1126709,0.0262451,0.1672363,0.0443726c0.2610474,0.0870361,0.5280762,0.1601563,0.8030396,0.2131958  c0.079834,0.0150146,0.1613159,0.0245972,0.2421875,0.0365601c0.3171387,0.048584,0.6394653,0.0813599,0.9701538,0.0813599  c0.2617188,0,0.5180664-0.0209961,0.7714844-0.0519409c0.0728149-0.0089111,0.144165-0.0214844,0.2163086-0.0328369  c0.1896973-0.0299072,0.3762207-0.0679321,0.5598755-0.1143188c0.067627-0.0170898,0.135498-0.0324097,0.2023315-0.0516968  c0.2399902-0.0692139,0.4755859-0.1482544,0.7028198-0.2442017c0.017395-0.0073242,0.0335083-0.0168457,0.0508423-0.024292  c0.2089844-0.0903931,0.4105835-0.1935425,0.6070557-0.3051147c0.0670776-0.0380859,0.132019-0.0786743,0.1975708-0.1191406  c0.1523438-0.0941162,0.2998047-0.1943359,0.4430542-0.3005981c0.0584106-0.043335,0.117981-0.0844727,0.1748657-0.1297607  c0.1867065-0.1487427,0.3659058-0.3060913,0.5343018-0.4746094c0.0368652-0.0369263,0.0697632-0.0775146,0.1057739-0.1153564  c0.1348267-0.1417847,0.2627563-0.2893066,0.3838501-0.4430542c0.0475464-0.0604858,0.0935059-0.1217651,0.138916-0.184082  c0.1165771-0.1598511,0.2252197-0.3250732,0.326355-0.4957275c0.0198975-0.0335693,0.0447998-0.0633545,0.0640869-0.0973511  c0.0404663,0.0708618,0.0917969,0.1342773,0.1350098,0.2033691c0.0762939,0.1231079,0.1552734,0.2438354,0.2397461,0.361084  c0.0528564,0.0726318,0.105957,0.1442871,0.1618652,0.2144775c0.138916,0.1762695,0.2854614,0.3460693,0.4423218,0.5064697  c0.0072632,0.0073242,0.0136719,0.0155029,0.0209961,0.0228271c0.7593994,0.769043,1.7180786,1.3404541,2.7919312,1.6393433  c0.0222168,0.0062256,0.0447998,0.0111084,0.0671387,0.0171509c0.2218018,0.059082,0.4481201,0.1057129,0.678833,0.140564  c0.0549316,0.0085449,0.1092529,0.0179443,0.1645508,0.0249634c0.2574463,0.0319824,0.5178833,0.053833,0.7839355,0.053833  c0.2590942,0,0.5130615-0.0204468,0.7640381-0.0508423c0.0889893-0.0105591,0.1759644-0.0258789,0.263855-0.0400391  c0.1556396-0.0255737,0.30896-0.0563354,0.4605103-0.0930786c0.1088257-0.0258789,0.2172241-0.0513916,0.3238525-0.0827637  c0.1043091-0.03125,0.2053223-0.069458,0.307251-0.105896c0.2982788-0.1047974,0.5861816-0.2288818,0.8622437-0.3753052  c0.0040894-0.0021973,0.0083008-0.0039673,0.0123291-0.0061646c1.0410156-0.5550537,1.9145508-1.3851929,2.4961548-2.4221802  c0.0349731,0.0612183,0.0792847,0.1154175,0.1162109,0.1752319c0.0793457,0.128479,0.1615601,0.2545166,0.2498169,0.376709  c0.0623779,0.0864258,0.1260376,0.1709595,0.1925659,0.2539063c0.0938721,0.1169434,0.1934814,0.2286987,0.2954712,0.338623  c0.0628662,0.067749,0.1218872,0.1387329,0.1876221,0.2036133c0.1576538,0.1557617,0.3251343,0.3013306,0.4987183,0.4400024  c0.0769653,0.0614014,0.1574097,0.1173096,0.2371216,0.1750488c0.1218872,0.0884399,0.24646,0.1727295,0.3747559,0.2525024  c0.0813599,0.0504761,0.1622314,0.100769,0.2459717,0.147644c0.1740112,0.0975952,0.3530884,0.1867065,0.5368652,0.2679443  c0.0388184,0.0170898,0.0753174,0.038147,0.114502,0.0545044c0.2232666,0.0933228,0.4547119,0.1702271,0.6901245,0.2380371  c0.0725098,0.020874,0.1462402,0.0375366,0.2197266,0.0558472c0.1798706,0.0449219,0.3622437,0.0818481,0.5477905,0.111084  c0.0748291,0.0117798,0.1489258,0.0247803,0.2244873,0.0339355c0.2539673,0.0308228,0.5108643,0.0516357,0.7731323,0.0516357  c0.2617798,0,0.5181885-0.0209961,0.7716064-0.0519409c0.072998-0.0089111,0.1445313-0.0214844,0.2167969-0.0328979  c0.1894531-0.0298462,0.3756714-0.0678101,0.559082-0.1141357c0.0680542-0.0171509,0.1363525-0.0325928,0.2035522-0.052002  c0.239624-0.0690918,0.4748535-0.1480103,0.7018433-0.2437744c0.0187988-0.0079346,0.0362549-0.0182495,0.0549927-0.0263062  c0.2073975-0.0899048,0.4077148-0.1921387,0.6027832-0.3029175c0.0678711-0.0384521,0.1334229-0.0794678,0.1997681-0.1204224  c0.1513672-0.0935059,0.2977905-0.1931152,0.4401245-0.298645c0.0592041-0.0438843,0.1195679-0.0855713,0.1772461-0.1314697  c0.1862793-0.1483765,0.3651123-0.3053589,0.5330811-0.4734497c0.0377197-0.0377197,0.0714111-0.0792236,0.1081543-0.1179199  c0.1339111-0.1409912,0.2612305-0.2876587,0.3815918-0.4404907c0.0478516-0.0608521,0.0941162-0.1224976,0.1398315-0.1852417  c0.116272-0.1595459,0.2246704-0.3244019,0.3256226-0.4946899c0.0199585-0.0337524,0.0449829-0.0635986,0.0643921-0.0977783  c0.0404053,0.0707397,0.0916138,0.1340942,0.1347656,0.203064c0.076355,0.1231689,0.1553955,0.2441406,0.2399902,0.3615112  c0.0528564,0.0726929,0.1060181,0.1442871,0.1619263,0.2145386c0.1384277,0.1757202,0.2844849,0.3447266,0.4407349,0.5046997  c0.0078735,0.0079346,0.0148315,0.0168457,0.0227051,0.0247803c0.7590942,0.7686768,1.7172241,1.3398438,2.7904053,1.6387939  c0.0227661,0.0064087,0.0458984,0.0112915,0.0687866,0.0175171c0.2211914,0.0588989,0.4468384,0.1054077,0.6769409,0.1402588  c0.0552979,0.0085449,0.1098633,0.0180664,0.1655273,0.0251465c0.2573242,0.0319824,0.5177002,0.053772,0.7835693,0.053772  c0.2592773,0,0.5133057-0.0204468,0.7644043-0.0508423c0.0884399-0.010498,0.1749268-0.0257568,0.262207-0.0397949  c0.1572266-0.0257568,0.3121338-0.0570068,0.46521-0.0941162c0.1067505-0.0254517,0.2131348-0.050415,0.3178101-0.0811768  c0.1110229-0.0331421,0.2185059-0.0736694,0.3268433-0.1126709c0.2835083-0.1005249,0.557251-0.2189331,0.8207397-0.3572388  c0.0140991-0.0074463,0.0288696-0.013916,0.0429077-0.0214844c1.0385132-0.5552368,1.9100342-1.3845825,2.4910889-2.4199219  c0.0228271,0.039917,0.053772,0.0739136,0.0774536,0.1132813c0.1246948,0.2073364,0.2608643,0.4064941,0.4082642,0.5974731  c0.036377,0.046936,0.0697021,0.0957642,0.1073608,0.1415405c0.182373,0.2229614,0.382019,0.4307251,0.5933228,0.6269531  c0.03125,0.0287476,0.0627441,0.0565796,0.0944824,0.0847168c0.7085571,0.631958,1.5599976,1.107666,2.5033569,1.3720703  c0.0036621,0.0010376,0.0074463,0.00177,0.0111084,0.0028076c0.3082886,0.0857544,0.6251221,0.1500854,0.9503784,0.1888428  c0.0100708,0.0012817,0.0198975,0.0032959,0.0299683,0.0045166c0.2396851,0.0273438,0.4822388,0.0450439,0.729187,0.0450439  c0.0703735,0,0.1387329-0.0081787,0.2085571-0.010498c0.0480347-0.0015869,0.0957642-0.0045166,0.1439209-0.0072021  c0.3254395-0.0180054,0.6456299-0.0548096,0.9561157-0.1203613V39.6191406z M29.8662109,15.8662109h7.3105469l-0.4599609,4.9121094  c-0.0898438,0.9672852-0.1875,1.9267578-0.2851563,2.8867188c-0.0732422,0.7236328-0.1474609,1.4472656-0.2177734,2.1743164  h-9.182312l1.338562-4.7602539C28.8857422,19.3320313,29.3769531,17.6088867,29.8662109,15.8662109z M55.9968262,33.9275513  c-0.2103271,0.1376953-0.4347534,0.2550049-0.6669312,0.3582153c-0.0518799,0.0227051-0.1026611,0.0473633-0.1555176,0.0682373  c-0.2127686,0.0854492-0.435791,0.1497192-0.6627197,0.2037354c-0.067627,0.0157471-0.1324463,0.038147-0.2011108,0.0510254  c-0.2888794,0.0552979-0.5856934,0.0889893-0.890625,0.0889893c-0.2954712,0-0.5823364-0.0342407-0.862793-0.0862427  c-0.1175537-0.0221558-0.2301636-0.0586548-0.3449097-0.0894775c-0.1560669-0.0415039-0.3111572-0.0848999-0.4603882-0.1415405  c-0.1291504-0.0492554-0.2536011-0.107666-0.3774414-0.1676636c-0.1287231-0.0623779-0.2545776-0.1287842-0.3763428-0.2021484  c-0.1147461-0.0688477-0.2269287-0.1412964-0.3352051-0.2192993c-0.1306152-0.0947876-0.2542114-0.1977539-0.3740845-0.3051758  c-0.0811157-0.0720825-0.1641235-0.1419678-0.2400513-0.2194214c-0.1639404-0.1688232-0.3152466-0.3494263-0.4520264-0.5411987  c-0.0209351-0.0290527-0.0461426-0.0547485-0.0664063-0.0843506c-0.4998779-0.736145-0.7929688-1.6205444-0.7929688-2.5718994  v-2.6303711h9.3662109v2.6303711c0,1.5823975-0.8099976,2.9793091-2.0393066,3.8143311  C56.0419922,33.8986816,56.0193481,33.9129639,55.9968262,33.9275513z M46.7612305,31.8833618  c-0.1123047,0.2593994-0.2496338,0.5054321-0.4059448,0.7380371c-0.0454712,0.0675659-0.1012573,0.1262817-0.1499634,0.1911621  c-0.1191406,0.1586304-0.2426758,0.3137207-0.3809204,0.4559326c-0.0718384,0.0739136-0.1509399,0.1395264-0.227356,0.2084351  c-0.1314087,0.1184692-0.2668457,0.2322388-0.4112549,0.3354492c-0.0887451,0.0634766-0.1807861,0.1220093-0.2739258,0.1791992  c-0.1483765,0.0911255-0.3024292,0.1730957-0.4611816,0.2476807c-0.0988159,0.0463867-0.1974487,0.0928955-0.2997437,0.1324463  c-0.175415,0.0678101-0.3579712,0.1200562-0.5429077,0.1668701c-0.0935669,0.0236206-0.1845703,0.053894-0.2800293,0.0718384  c-0.2838135,0.0532837-0.574646,0.0873413-0.8739014,0.0873413c-0.3018799,0-0.5953369-0.0339966-0.8815918-0.0875244  c-0.0925903-0.017334-0.1808472-0.0465088-0.2716064-0.0691528c-0.1914673-0.0477905-0.3803711-0.1016235-0.5617676-0.1716309  c-0.0965576-0.0372314-0.1895142-0.0809326-0.282959-0.1241455c-0.1691895-0.0784302-0.333374-0.1650391-0.4908447-0.2619629  c-0.0843506-0.0518188-0.1677856-0.1046753-0.2485962-0.1615601c-0.1591797-0.1123047-0.3087158-0.236145-0.4522705-0.3666382  c-0.064209-0.0582886-0.1312866-0.1132813-0.1921997-0.1751099c-0.1593628-0.1618042-0.3032837-0.3373413-0.4375-0.5205078  c-0.0319214-0.0436401-0.0697021-0.0822144-0.1001587-0.1270142c-0.1621704-0.2384033-0.3040161-0.491272-0.4194946-0.7579346  c-0.0062256-0.0143433-0.0093384-0.0303345-0.0154419-0.0447388c-0.2286377-0.543396-0.3584595-1.1369019-0.3584595-1.760498  v-2.6303711h9.3964844v2.6303711c0,0.6018066-0.1252441,1.1733398-0.3376465,1.7011719  C46.7851563,31.8071289,46.7769775,31.84729,46.7612305,31.8833618z M34.0372925,33.9266357  c-0.2109985,0.1381836-0.4361572,0.2559814-0.6691284,0.3594971c-0.0515747,0.022522-0.1019897,0.0469971-0.15448,0.067749  c-0.2130127,0.0855103-0.4361572,0.1498413-0.6633301,0.2039185c-0.0674438,0.015686-0.1322632,0.038147-0.2007446,0.0509644  c-0.2888794,0.0552979-0.5856323,0.0889893-0.890625,0.0889893c-0.2955933,0-0.5827026-0.0342407-0.8632813-0.0862427  c-0.1167603-0.0220337-0.2286987-0.0583496-0.3427124-0.0889282c-0.1571655-0.041687-0.3133545-0.0854492-0.463623-0.1425171  c-0.1279297-0.0487671-0.2512207-0.1066895-0.3739624-0.1660767c-0.1304321-0.0631104-0.2579346-0.1303711-0.3812866-0.2047729  c-0.1130371-0.0679932-0.2236938-0.1393433-0.3305664-0.2162476c-0.1328735-0.0962524-0.2585449-0.2008667-0.380249-0.3101196  c-0.0792847-0.0705566-0.1604614-0.138855-0.2348022-0.2145386c-0.1661987-0.1709595-0.3195801-0.3537598-0.4579468-0.5482178  c-0.0193481-0.0268555-0.0426025-0.0505371-0.0613403-0.0778198c-0.5004272-0.7363892-0.7938232-1.6211548-0.7938232-2.572937  v-2.6303711h9.3662109v2.6303711c0,1.5829468-0.8100586,2.9803467-2.039856,3.8153076  C34.0804443,33.8989258,34.0588379,33.9127197,34.0372925,33.9266357z M55.0126953,15.8662109  c0.4882813,1.7421875,0.9804688,3.4648438,1.4931641,5.2016602l1.3414307,4.7714844h-9.1809692l-0.4749146-5.0610352  c-0.0908203-0.9716797-0.1894531-1.9355469-0.2871094-2.8999023c-0.0680542-0.6689453-0.1333618-1.3406372-0.1987915-2.012207  H55.0126953z M46.0947266,15.8662109c0.0703125,0.7270508,0.1445313,1.4506836,0.2177734,2.1743164  C46.4101563,19,46.5078125,19.9599609,46.5976563,20.9272461l0.4609375,4.9121094H37.824646  c0.0654297-0.6716309,0.1306763-1.3433838,0.1987915-2.0126953c0.0976563-0.9638672,0.1962891-1.9282227,0.2871094-2.8999023  l0.473999-5.0605469H46.0947266z M69.0986328,30.0693359c0,1.972168-1.2598267,3.6478271-3.0212402,4.3132324  c-0.538269,0.1986084-1.1071777,0.3151855-1.661377,0.3151855c-0.3018799,0-0.5953369-0.0339966-0.8815918-0.0875244  c-0.0925903-0.017334-0.1808472-0.0465088-0.2716064-0.0691528c-0.1914673-0.0477905-0.3803711-0.1016235-0.5617676-0.1716309  c-0.0965576-0.0372314-0.1895142-0.0809326-0.282959-0.1241455c-0.1691895-0.0784302-0.333374-0.1650391-0.4908447-0.2619629  c-0.0843506-0.0518188-0.1677856-0.1046753-0.2485962-0.1615601c-0.1591797-0.1123047-0.3087158-0.236145-0.4522705-0.3666382  c-0.064209-0.0582886-0.1312866-0.1132813-0.1921997-0.1751099c-0.1593628-0.1618042-0.3032837-0.3373413-0.4375-0.5205078  c-0.0319214-0.0436401-0.0697021-0.0822144-0.1001587-0.1270142c-0.1621704-0.2384033-0.3040161-0.491272-0.4194946-0.7579346  c-0.0062256-0.0143433-0.0093384-0.0303345-0.0154419-0.0447388c-0.2286377-0.543396-0.3584595-1.1369019-0.3584595-1.760498  v-2.6303711h9.3955078V30.0693359z M67.7910156,24.0585938c0.2832031,0.5932617,0.5664063,1.1860352,0.8476563,1.7807617h-9.1289063  l-1.4658203-5.2133789c-0.4708862-1.5944824-0.916626-3.1721802-1.3635254-4.7597656h7.2268066  c0.3828125,0.815918,0.7705078,1.6269531,1.1572266,2.4379883c0.4589844,0.9594727,0.9169922,1.9194336,1.3681641,2.8867188  C66.8808594,22.1518555,67.3359375,23.1054688,67.7910156,24.0585938z M60.0175781,10.1391602  c1.984375,0,3.5986328,1.5947266,3.5986328,3.5551758v0.5722656h-7.1972656v-0.5722656  C56.4189453,11.7338867,58.0332031,10.1391602,60.0175781,10.1391602z M51.2207031,10.1391602  c1.984375,0,3.5986328,1.5947266,3.5986328,3.5551758v0.5722656h-7.1972656v-0.5722656  C47.6220703,11.7338867,49.2363281,10.1391602,51.2207031,10.1391602z M42.4541016,10.1391602  c1.9677734,0,3.5683594,1.5947266,3.5683594,3.5551758v0.5722656h-7.1669922v-0.5722656  C38.8554688,11.7338867,40.4697266,10.1391602,42.4541016,10.1391602z M33.6572266,10.1391602  c1.984375,0,3.5986328,1.5947266,3.5986328,3.5551758v0.5722656h-7.1962891v-0.5722656  C30.0595703,11.7338867,31.6738281,10.1391602,33.6572266,10.1391602z M21.2929688,13.6943359  c0-1.9604492,1.6005859-3.5551758,3.5683594-3.5551758c1.984375,0,3.5986328,1.5947266,3.5986328,3.5551758v0.5722656h-7.1669922  V13.6943359z M18.4423828,21.199707c0.4541016-0.9418945,0.9003906-1.8769531,1.3466797-2.8115234  c0.4003906-0.8388672,0.8007813-1.6782227,1.2070313-2.5219727h7.2061157  c-0.0356445,0.1265869-0.0715942,0.2531738-0.1072998,0.3796387c-0.4123535,1.4610596-0.8269043,2.9145508-1.2628784,4.3913574  l-1.4628906,5.2021484h-9.1181641C16.9931641,24.2885742,17.71875,22.7509766,18.4423828,21.199707z M15.7792969,27.4389648  h9.3964844v2.6303711c0,0.6002808-0.1248169,1.1703491-0.3361816,1.6971436  c-0.0154419,0.038147-0.0241089,0.079895-0.0404663,0.1174927c-0.1121216,0.2589722-0.2492065,0.5047607-0.4052124,0.7369995  c-0.0459595,0.0684204-0.102417,0.1278076-0.1517334,0.1934814c-0.1185913,0.1578369-0.2414551,0.3121948-0.3789673,0.4537354  c-0.0722046,0.0742188-0.1516113,0.1402588-0.2284546,0.2094727c-0.1309814,0.117981-0.2659912,0.2313843-0.4098511,0.3343506  c-0.0891113,0.0637207-0.1813354,0.1224365-0.2747803,0.1798096c-0.1480103,0.0908813-0.3016968,0.1727295-0.460083,0.2471924  c-0.0990601,0.0465088-0.197937,0.0931396-0.3004761,0.1327515c-0.175293,0.067749-0.357666,0.1199951-0.5423584,0.166748  c-0.0935669,0.0236816-0.1846924,0.0539551-0.2802734,0.0718994c-0.2837524,0.0532837-0.5745239,0.0873413-0.8737793,0.0873413  c-0.3023682,0-0.5962524-0.0339966-0.8829346-0.0876465c-0.0487671-0.0087891-0.0965576-0.0202026-0.1447144-0.0305786  c-0.2646484-0.0581055-0.5222778-0.1347046-0.7681885-0.2346191c-0.0172119-0.0070801-0.0352783-0.012085-0.0524292-0.0194092  c-1.6829224-0.7072144-2.8656006-2.3479614-2.8656006-4.2561646V27.4389648z"
     id="path8" /><path
     d="M55.3486328,39.6191406H28.6865234c-0.4414063,0-0.7998047,0.3579102-0.7998047,0.7998047V59.746582  c0,0.4418945,0.3583984,0.7998047,0.7998047,0.7998047h26.6621094c0.4414063,0,0.7998047-0.3579102,0.7998047-0.7998047V40.4189453  C56.1484375,39.9770508,55.7900391,39.6191406,55.3486328,39.6191406z M54.5488281,58.9467773h-25.0625V41.21875h25.0625V58.9467773  z"
     id="path10" /><path
     d="M42.3945313,70.1914063c-2.3681641,0-4.2949219,1.8974609-4.2949219,4.2299805  c0,2.3491211,1.9267578,4.2597656,4.2949219,4.2597656s4.2939453-1.9106445,4.2939453-4.2597656  C46.6884766,72.0888672,44.7626953,70.1914063,42.3945313,70.1914063z M42.3945313,77.081543  c-1.4863281,0-2.6953125-1.1933594-2.6953125-2.6601563c0-1.4501953,1.2089844-2.6303711,2.6953125-2.6303711  c1.4853516,0,2.6943359,1.1801758,2.6943359,2.6303711C45.0888672,75.8881836,43.8798828,77.081543,42.3945313,77.081543z"
     id="path12" /></svg>