<?xml version="1.0" encoding="UTF-8" standalone="no"?>
<!-- Created with Inkscape (http://www.inkscape.org/) -->

<svg
   width="11.994916mm"
   height="11.569408mm"
   viewBox="0 0 45.335117 43.726899"
   version="1.1"
   id="svg1"
   xml:space="preserve"
   xmlns="http://www.w3.org/2000/svg"
   xmlns:svg="http://www.w3.org/2000/svg"><defs
     id="defs1" /><g
     id="layer1"
     transform="translate(-257.43918,-473.58899)"><g
       id="g13945"><g
         id="g13944"><path
           style="fill:#000000;fill-rule:evenodd;stroke:#000000;stroke-width:2.51339;stroke-linecap:round;stroke-dasharray:none;stroke-opacity:1"
           d="m 276.37851,476.22773 h 7.08088 c 0,0 1.20748,4.95806 1.74177,8.01931 0.53429,3.06125 3.28234,8.2646 -4.90817,8.18994 -8.19051,-0.0747 -6.01095,-4.80468 -5.4867,-8.18994 0.52425,-3.38526 1.57222,-8.01931 1.57222,-8.01931 z"
           id="path13941" /><g
           id="g13943"><path
             style="fill:#000000;fill-rule:evenodd;stroke:#000000;stroke-width:2.51339;stroke-linecap:round;stroke-dasharray:none;stroke-opacity:1"
             d="m 264.26835,476.22773 h 8.32473 c 0,0 -0.40329,2.48401 -1.14868,6.73963 -0.74539,4.25562 -0.5092,9.45897 -8.01722,9.46962 -7.50802,0.0106 -4.19316,-4.03687 -2.73048,-8.18994 1.46268,-4.15307 3.57165,-8.01931 3.57165,-8.01931 z"
             id="path13941-5" /></g><g
           id="g13943-7"
           transform="matrix(-1,0,0,1,560.2135,0)"><path
             style="fill:#000000;fill-rule:evenodd;stroke:#000000;stroke-width:2.51339;stroke-linecap:round;stroke-dasharray:none;stroke-opacity:1"
             d="m 264.26835,476.22773 h 8.32473 c 0,0 -0.40329,2.48401 -1.14868,6.73963 -0.74539,4.25562 -0.5092,9.45897 -8.01722,9.46962 -7.50802,0.0106 -4.19316,-4.03687 -2.73048,-8.18994 1.46268,-4.15307 3.57165,-8.01931 3.57165,-8.01931 z"
             id="path13941-5-42" /></g></g><path
         style="fill:#000000;fill-rule:evenodd;stroke:#000000;stroke-width:2.89134;stroke-linecap:round;stroke-opacity:1"
         d="m 263.5136,496.16316 v 19.70703 h 33.1863 v -19.70703 h -3.58619 v 12.0169 h -26.01449 v -12.0169 z"
         id="path13942" /><path
         style="fill:#000000;fill-rule:evenodd;stroke:#000000;stroke-width:2.51338;stroke-linecap:round;stroke-dasharray:none;stroke-opacity:1"
         d="m 263.38563,475.01629 33.44223,-0.17062"
         id="path13943" /></g></g></svg>
